<svg xmlns="http://www.w3.org/2000/svg" width="123" height="123" fill="none"><g clip-path="url(#a)"><mask id="b" width="123" height="123" x="0" y="0" maskUnits="userSpaceOnUse" style="mask-type:luminance"><path fill="#fff" d="M0 0h122.667v122.667H0V0Z"/></mask><g mask="url(#b)"><mask id="c" width="124" height="123" x="-1" y="0" maskUnits="userSpaceOnUse" style="mask-type:luminance"><path fill="#fff" d="M120.208 55.953 66.715 2.464a7.89 7.89 0 0 0-11.163 0l-11.104 11.11c1.573-1.574-1.175 1.174 0 0L2.307 55.702a7.9 7.9 0 0 0 0 11.161l53.496 53.496a7.9 7.9 0 0 0 11.16 0l53.245-53.245a7.902 7.902 0 0 0 0-11.161Z"/><path fill="#000" d="M89.37 71.721A17.646 17.646 0 0 0 67.59 54.563L40.924 27.898c-.852-.87-4.29-4.264-5.29-5.264-6.2-6.2-19.2 6.8-13 13 2 2 4.395 4.438 5.264 5.29l26.665 26.671a17.631 17.631 0 0 0-.485 4.126 17.646 17.646 0 0 0 23.245 16.741 2.407 2.407 0 0 0 .937-3.985l-7.842-7.84a2.406 2.406 0 0 1 0-3.402l2.817-2.82a2.406 2.406 0 0 1 3.401 0l7.845 7.845a2.406 2.406 0 0 0 3.981-.94c.603-1.805.91-3.696.908-5.599Z"/></mask><g mask="url(#c)"><mask id="d" width="123" height="123" x="0" y="0" maskUnits="userSpaceOnUse" style="mask-type:luminance"><path fill="#fff" d="M0 .15h122.516v122.517H0V.15Z"/></mask><g fill="#F03C2E" mask="url(#d)"><path d="M120.208 55.953 66.715 2.464a7.89 7.89 0 0 0-11.163 0l-11.104 11.11c1.573-1.574-1.175 1.174 0 0L2.307 55.702a7.9 7.9 0 0 0 0 11.161l53.496 53.496a7.9 7.9 0 0 0 11.16 0l53.245-53.245a7.902 7.902 0 0 0 0-11.161Z"/><path d="M44.448 13.573c1.573-1.573-1.175 1.175 0 0Z"/></g></g></g></g><defs><clipPath id="a"><path fill="#fff" d="M0 0h123v123H0z"/></clipPath></defs></svg>
